<?xml version="1.0" encoding="UTF-8"?>
<svg id="Layer_1" data-name="Layer 1" xmlns="http://www.w3.org/2000/svg" viewBox="0 0 31.98 31.5">
  <defs>
    <style>
      .cls-1 {
        fill: #5a5352;
      }

      .cls-2 {
        fill: #7c7979;
      }

      .cls-3 {
        fill: #090806;
      }

      .cls-4 {
        fill: #040402;
      }

      .cls-5 {
        fill: #b6a8a4;
      }

      .cls-6 {
        fill: #fddd59;
      }

      .cls-7 {
        fill: #070703;
      }
    </style>
  </defs>
  <path class="cls-1" d="M16.44,0v.02c-.3,0-.6,0-.89,0v-.02h.89Z"/>
  <path class="cls-5" d="M15.55,0v.02c-.1,0-.2,0-.3,0v-.02h.3Z"/>
  <path class="cls-5" d="M16.74,0v.02c-.1,0-.2,0-.3,0v-.02h.3Z"/>
  <path class="cls-2" d="M15.66,31.5h-.3v-.02c.09,0,.22-.02.3.02Z"/>
  <polygon class="cls-1" points="16.61 31.48 16.61 31.5 16.34 31.5 16.61 31.48"/>
  <rect class="cls-5" x="16.61" y="31.48" width=".23" height=".02"/>
  <rect class="cls-5" x="15.15" y="31.48" width=".21" height=".02"/>
  <g>
    <path class="cls-3" d="M15.28.02c.1-.02.2-.02.3,0,.3-.02.6-.02.89,0,.1-.02.2-.02.3,0,1.38-.03,2.76.24,4.08.65,4.79,1.5,8.7,5.22,10.35,9.95.44,1.26.8,2.63.77,3.97l.02.25v1.8l-.02.23c.04.83-.11,1.66-.31,2.47-1.11,4.45-3.97,8.1-8.03,10.29-2.05,1.1-4.41,1.83-6.75,1.82h-.23c-.09,0-.18.01-.28.02h-.68c-.1,0-.2-.02-.3-.02h-.21c-1.69,0-3.43-.41-5-1.01C4.88,28.41.93,23.62.14,17.98c-.08-.61-.15-1.23-.1-1.84-.04-.26-.04-.54,0-.81-.05-.66.02-1.32.12-1.97C1.13,6.96,6.18,1.69,12.48.32,13.4.12,14.34-.01,15.28.02Z"/>
    <path class="cls-2" d="M.04,15.34c0,.27,0,.54,0,.81h-.04v-.81h.04Z"/>
    <polygon class="cls-2" points="31.98 14.85 31.96 14.59 31.98 14.59 31.98 14.85"/>
    <polygon class="cls-5" points="31.98 16.88 31.96 16.88 31.98 16.65 31.98 16.88"/>
    <path class="cls-6" d="M15.42.68c9.37-.34,17.01,7.61,15.79,17.02-.9,6.96-6.68,12.35-13.63,13.04C8.37,31.64.32,24.39.72,15.07,1.07,7.17,7.57.97,15.42.68Z"/>
    <path class="cls-4" d="M23.04,12.75l-.12-.32c-.4-1.24-.53-2.97-.56-4.28-.02-.69-.07-2.22.24-2.81.24-.46.9-.73,1.23-.21.29.46.04.86-.09,1.31-.5,1.8-.57,3.43-.34,5.27.05.42.11.92.2,1.33.06.26.19.51.26.76.3,1.23-.33,2.11-1.54,2.35-1.18.23-3.98-.34-3.27-2.08.39-.95,1.75-1.27,2.67-1.36.45-.05.88-.07,1.32.04Z"/>
    <path class="cls-4" d="M11.16,12.75c-.22-.49-.33-1.05-.42-1.59-.24-1.38-.33-2.85-.28-4.26.02-.43.05-1.15.23-1.53.27-.55,1.06-.78,1.31-.1.17.46-.04.77-.16,1.19-.58,2.13-.62,4.4-.14,6.56.07.34.25.65.3.99.25,1.68-1.2,2.34-2.65,2.17-1.09-.13-2.8-.72-2.18-2.15.4-.92,1.75-1.22,2.65-1.32.46-.05.89-.07,1.34.04Z"/>
    <path class="cls-7" d="M22.83,21.34c.26-.04.5.15.47.42-.04.35-.65,1.2-.89,1.49-3.34,3.98-10.48,2.57-13.98-.49-.13-.11-.49-.41-.51-.57-.03-.31.29-.5.57-.4.15.06.55.45.72.58,3.63,2.84,10.33,4.19,13.13-.45.13-.22.2-.54.5-.58Z"/>
  </g>
</svg>